# xmcd
#
# Track frame offsets: 
#        150
#        15131
#        54632
#        72985
#        101027
#        119721
#        151225
#        171591
#
# Disc length: 3073 seconds
#
# Revision: 0
# Processed by: cddbd v1.5.2PL0 Copyright (c) Steve Scherf et al.
# Submitted via: ExactAudioCopy v1.1
#
DISCID=690bff08
DTITLE=The BluesBones - Double Live [disk 1]
DYEAR=2016
DGENRE=Blues Rock
TTITLE0=Saved By The Blues
TTITLE1=Voodoo Guitar
TTITLE2=Riding Out
TTITLE3=Moonshine
TTITLE4=Find Me A Woman
TTITLE5=I'm Still Your Man
TTITLE6=No Good For Me
TTITLE7=She's Got The Devil In Her
EXTD=
EXTT0=
EXTT1=
EXTT2=
EXTT3=
EXTT4=
EXTT5=
EXTT6=
EXTT7=
PLAYORDER=
